PathFileType	4	(x/y/z)	S05_PSF_T01
DataRate	CameraRate	NumFrames	NumMarkers	Units	OrigDataRate	OrigDataStartFrame	OrigNumFrames
240	240	5	50	mm	240	107	427
Frame#	Time	Sternum			R.Acromium			L.Acromium			Top.Head			R.ASIS			L.ASIS			R.PSIS			L.PSIS			R.Great.Tro			L.Great.Tro			R.Iliac.Crest			L.Iliac.Crest			V.Sacral			R.Thigh.Upper.Post			R.Thigh.Lower.Ant			R.Thigh.Lower.Post			R.Thigh.Upper.Ant			R.Knee.Lat			R.Knee.Med			R.Shank.Upper.Post			R.Shank.Lower.Ant			R.Shank.Lower.Post			R.Shank.Upper.Ant			R.Ankle.Lat			R.Ankle.Med			R.Heel.Upper			R.Heel.Med			R.Heel.Lat			R.Toe.Lat			R.Toe.Med			R.Toe.Tip			L.Thigh.Upper.Post			L.Thigh.Lower.Ant			L.Thigh.Lower.Post			L.Thigh.Upper.Ant			L.Knee.Lat			L.Shank.Upper.Post			L.Shank.Lower.Ant			L.Shank.Lower.Post			L.Shank.Upper.Ant			L.Ankle.Lat			L.Ankle.Med			L.Heel.Upper			L.Heel.Med			L.Heel.Lat			L.Toe.Lat			L.Toe.Med			L.Toe.Tip			Cervical.Spine			Back			
		X1	Y1	Z1	X2	Y2	Z2	X3	Y3	Z3	X4	Y4	Z4	X5	Y5	Z5	X6	Y6	Z6	X7	Y7	Z7	X8	Y8	Z8	X9	Y9	Z9	X10	Y10	Z10	X11	Y11	Z11	X12	Y12	Z12	X13	Y13	Z13	X14	Y14	Z14	X15	Y15	Z15	X16	Y16	Z16	X17	Y17	Z17	X18	Y18	Z18	X19	Y19	Z19	X20	Y20	Z20	X21	Y21	Z21	X22	Y22	Z22	X23	Y23	Z23	X24	Y24	Z24	X25	Y25	Z25	X26	Y26	Z26	X27	Y27	Z27	X28	Y28	Z28	X29	Y29	Z29	X30	Y30	Z30	X31	Y31	Z31	X32	Y32	Z32	X33	Y33	Z33	X34	Y34	Z34	X35	Y35	Z35	X36	Y36	Z36	X37	Y37	Z37	X38	Y38	Z38	X39	Y39	Z39	X40	Y40	Z40	X41	Y41	Z41	X42	Y42	Z42	X43	Y43	Z43	X44	Y44	Z44	X45	Y45	Z45	X46	Y46	Z46	X47	Y47	Z47	X48	Y48	Z48	X49	Y49	Z49	X50	Y50	Z50	

107	0.44167	-984.9	1268.5	277.92	-1070.7	1531.1	431.13	-1090.8	1543.3	105.19	-1072.1	1838.8	257.71	-1052.2	1018.3	409.58	NaN	NaN	NaN	NaN	NaN	NaN	NaN	NaN	NaN	-1129.1	936.11	477.01	-1141.5	944.16	89.397	-1144.8	1103.5	449.13	-1137.2	1098.7	113.11	-1264.8	1001.3	290.56	-998.12	742.35	479.62	-923.92	694.47	428.27	-976.65	656.2	461.17	-950.08	778.75	445.55	-957.36	558.7	438.27	-938.01	549.13	308.3	-1027.5	318.83	413.47	-965.09	255.48	423.62	-1022.7	243.73	397.65	-968.95	331.93	437.81	-970.18	146.61	404.53	-949.09	176.91	320.6	-1024.7	90.691	332.77	-1003.7	64.198	304.95	-1017.4	59.988	368.23	-864.9	65.297	446.22	-814	90.506	339.54	-762.86	115.8	394.55	-1158.8	707.94	100.6	-1085.5	628.58	125.51	-1157	614.15	119.48	-1080.1	717.45	104.37	-1156	520.27	129.68	-1242.9	326.96	134.68	-1180.7	262.64	141.3	-1252.3	256.71	154.57	-1175.4	331.98	126.64	-1236.4	114.08	168.53	-1205.6	130.74	255.83	-1302	71.503	223.24	-1288.1	44.616	254.8	-1297.5	43.686	193.42	-1117.2	39.047	134.6	-1091.1	49.187	253.62	-1028.3	58.02	196.93	-1129.4	1576.8	273.04	-1249.5	1304	277.08
108	0.44583	-979.69	1267.8	277.85	-1065.5	1530.4	431.25	-1085.7	1542.8	105.34	-1066.5	1838.2	258.02	-1046.7	1017.5	409.49	NaN	NaN	NaN	NaN	NaN	NaN	NaN	NaN	NaN	-1124	935.39	476.95	-1136.9	943.97	89.452	-1139.3	1102.8	449.24	-1132.4	1098.2	113.23	-1259.6	1001	290.87	-993.69	741.04	479.41	-919.68	692.96	427.82	-972.48	654.81	460.73	-945.57	777.3	445.22	-952.8	557.55	437.45	-933.5	548.08	307.35	-1016.9	316.05	413.36	-952.73	254.54	423.83	-1009.9	241.07	397.74	-958.72	330.88	437.75	-954.42	145.27	405.11	-934.16	175.89	321.17	-1007.2	87.573	333.47	-985.37	61.609	305.73	-999.07	57.171	369	-846.92	67.099	447.1	-796.83	93.402	340.66	-746.03	120.37	395.49	-1155.7	707.95	100.46	-1082.9	628.17	125.43	-1154.4	614.14	119.33	-1077	716.98	104.25	-1154.2	520.15	129.59	-1242.1	327.18	134.68	-1180.1	262.62	141.18	-1251.7	256.99	154.61	-1174.5	331.93	126.52	-1236.2	114.17	168.58	-1205.3	130.75	255.85	-1302.1	71.7	223.32	-1288	44.668	254.84	-1297.5	43.812	193.48	-1117.2	39.003	134.57	-1091	49.094	253.62	-1028.2	57.807	196.92	-1124	1576.2	273.2	-1244.3	1303.4	277.29
109	0.45	-974.48	1267.1	277.8	-1060.2	1529.7	431.39	-1080.5	1542.2	105.52	-1061	1837.6	258.35	-1041.2	1016.7	409.41	NaN	NaN	NaN	NaN	NaN	NaN	NaN	NaN	NaN	-1118.9	934.61	476.88	-1132.3	943.75	89.505	-1133.7	1102	449.36	-1127.4	1097.7	113.36	-1254.4	1000.6	291.18	-989.3	739.62	479.18	-915.51	691.33	427.36	-968.39	653.31	460.28	-941.1	775.72	444.89	-948.3	556.31	436.62	-929.08	546.94	306.36	-1006.2	313.36	413.27	-940.44	253.73	424.07	-997.12	238.55	397.86	-948.56	329.92	437.72	-938.77	144.17	405.72	-919.35	175.06	321.77	-989.78	84.745	334.21	-967.14	59.321	306.57	-980.84	54.686	369.82	-829.14	69.2	448.01	-779.9	96.533	341.79	-729.54	125.16	396.43	-1152.5	707.94	100.32	-1080.3	627.74	125.36	-1151.8	614.11	119.2	-1073.9	716.49	104.14	-1152.5	520.02	129.51	-1241.2	327.41	134.69	-1179.4	262.61	141.07	-1251.1	257.28	154.65	-1173.6	331.88	126.41	-1236	114.26	168.64	-1205	130.77	255.87	-1302.1	71.884	223.41	-1287.9	44.726	254.9	-1297.5	43.942	193.54	-1117.2	38.959	134.55	-1090.9	49	253.62	-1028.1	57.59	196.91	-1118.5	1575.5	273.37	-1239.1	1302.8	277.51
110	0.45417	-969.25	1266.3	277.77	-1055	1528.9	431.55	-1075.3	1541.6	105.71	-1055.5	1836.9	258.68	-1035.7	1015.9	409.34	NaN	NaN	NaN	NaN	NaN	NaN	NaN	NaN	NaN	-1113.7	933.76	476.8	-1127.7	943.51	89.556	-1128.1	1101.2	449.49	-1122.5	1097.2	113.5	-1249.2	1000.2	291.49	-984.95	738.09	478.92	-911.39	689.58	426.88	-964.36	651.71	459.82	-936.66	774.03	444.54	-943.84	554.99	435.79	-924.73	545.71	305.33	-995.63	310.79	413.23	-928.25	253.07	424.32	-984.44	236.2	398.02	-938.46	329.05	437.71	-923.24	143.32	406.36	-904.67	174.44	322.39	-972.46	82.208	335	-949.05	57.335	307.45	-962.74	52.529	370.69	-811.6	71.585	448.95	-763.21	99.893	342.89	-713.4	130.14	397.37	-1149.3	707.91	100.18	-1077.6	627.3	125.3	-1149.2	614.08	119.07	-1070.7	715.98	104.05	-1150.7	519.9	129.45	-1240.2	327.65	134.71	-1178.8	262.6	140.98	-1250.5	257.56	154.72	-1172.7	331.84	126.3	-1235.8	114.37	168.71	-1204.7	130.79	255.9	-1302.1	72.054	223.5	-1287.8	44.788	254.96	-1297.4	44.076	193.6	-1117.1	38.918	134.52	-1090.8	48.905	253.62	-1028.1	57.37	196.89	-1113.1	1574.8	273.56	-1233.9	1302.1	277.76
111	0.45833	-964.01	1265.6	277.75	-1049.7	1528.1	431.73	-1070.2	1540.9	105.93	-1050	1836.3	259.03	-1030.2	1015	409.29	NaN	NaN	NaN	NaN	NaN	NaN	NaN	NaN	NaN	-1108.5	932.83	476.72	-1123.1	943.24	89.605	-1122.5	1100.4	449.62	-1117.6	1096.7	113.66	-1244	999.81	291.81	-980.62	736.47	478.65	-907.33	687.72	426.39	-960.39	650.01	459.36	-932.25	772.24	444.18	-939.41	553.62	434.96	-920.45	544.41	304.27	-985.08	308.32	413.21	-916.17	252.54	424.6	-971.83	234	398.22	-928.44	328.28	437.71	-907.86	142.7	407.02	-890.16	174.01	323.03	-955.28	79.96	335.83	-931.12	55.645	308.38	-944.81	50.694	371.6	-794.3	74.235	449.9	-746.77	103.48	343.95	-697.63	135.3	398.29	-1146.1	707.87	100.04	-1075	626.84	125.25	-1146.5	614.03	118.95	-1067.6	715.46	103.96	-1148.9	519.77	129.39	-1239.3	327.89	134.75	-1178.1	262.59	140.89	-1249.9	257.86	154.8	-1171.8	331.8	126.21	-1235.6	114.47	168.78	-1204.3	130.81	255.94	-1302	72.209	223.6	-1287.7	44.855	255.03	-1297.4	44.215	193.68	-1117.1	38.879	134.5	-1090.7	48.807	253.62	-1028	57.148	196.88	-1107.6	1574.1	273.76	-1228.7	1301.4	278.01
